<svg width="127" height="40" viewBox="0 0 127 40" fill="none" xmlns="http://www.w3.org/2000/svg">
<g clip-path="url(#clip0_8265_20310)">
<path fill-rule="evenodd" clip-rule="evenodd" d="M19.8713 8.38054C19.5275 6.579 19.901 4.71517 20.9131 3.182C21.9095 1.73646 25.1713 0.675792 30.6987 0C29.4735 0.777497 28.4912 1.87955 27.8623 3.182C26.8641 5.19854 25.9968 7.60537 24.6495 8.38054C23.755 8.92262 22.3858 9.05272 20.5422 8.84673C22.4149 6.3893 23.5677 4.9293 24.0004 4.46673C24.3604 4.09812 22.064 5.59967 20.8967 6.90608C20.527 7.37779 20.1846 7.87007 19.8713 8.38054Z" fill="#80BC00"/>
<path fill-rule="evenodd" clip-rule="evenodd" d="M18.0003 6.01164C18.124 5.4133 18.12 4.79582 17.9885 4.19913C17.8569 3.60244 17.6008 3.03985 17.2366 2.54775C16.5166 1.57201 14.1348 0.8655 10.0911 0.428223C10.9716 0.925081 11.6923 1.66005 12.1693 2.54775C12.9002 3.89211 13.5329 5.49666 14.5148 6.01164C15.1693 6.35857 16.1512 6.46156 17.5148 6.32604C16.1512 4.68896 15.3057 3.71503 14.9784 3.40424C14.7166 3.15488 16.3912 4.15773 17.2421 5.03047C17.5146 5.34191 17.7678 5.66957 18.0003 6.01164Z" fill="#80BC00"/>
<path fill-rule="evenodd" clip-rule="evenodd" d="M28.3968 16.2623C29.2267 17.8961 29.6583 19.701 29.6568 21.5313C29.6733 23.038 29.3907 24.5332 28.8251 25.9312C28.2595 27.3292 27.422 28.6027 26.3606 29.6787C25.2992 30.7547 24.0346 31.6121 22.6394 32.2018C21.2441 32.7916 19.7455 33.102 18.2293 33.1155C15.188 33.05 12.2934 31.8034 10.1657 29.6426C8.03802 27.4819 6.84654 24.5789 6.84654 21.5557C6.84654 18.5324 8.03802 15.6295 10.1657 13.4687C12.2934 11.3079 15.188 10.0613 18.2293 9.99583C20.0495 9.99168 21.8433 10.429 23.4549 11.2697C21.0373 9.74154 18.2309 8.93099 15.3657 8.93335C6.87283 8.93335 0 15.8882 0 24.4693C0 33.0504 6.87282 39.9999 15.3493 39.9999C19.4574 39.9613 23.382 38.303 26.2602 35.3897C29.1385 32.4765 30.735 28.5466 30.6986 24.4639C30.7103 21.571 29.9134 18.7316 28.3968 16.2623ZM10.6583 21.683C10.653 23.1923 11.0704 24.6732 11.8638 25.9601C11.4291 25.1045 11.203 24.1593 11.2038 23.2009C11.2199 22.0251 11.5855 20.8804 12.2545 19.9105C12.9236 18.9407 13.8662 18.1891 14.9639 17.7502C16.0616 17.3113 17.2653 17.2048 18.4238 17.444C19.5823 17.6832 20.6437 18.2574 21.4747 19.0944C22.3056 19.9315 22.869 20.9941 23.094 22.1485C23.3189 23.3029 23.1954 24.4976 22.739 25.5825C22.2825 26.6673 21.5135 27.5938 20.5287 28.2455C19.5438 28.8972 18.3871 29.2449 17.2039 29.245C16.2537 29.247 15.3174 29.0181 14.4766 28.5783C15.7324 29.3776 17.1908 29.8062 18.6821 29.8142C20.3067 29.8455 21.9039 29.3952 23.27 28.521C24.6362 27.6467 25.7094 26.3879 26.353 24.9052C26.9966 23.4224 27.1814 21.7828 26.8838 20.1953C26.5862 18.6078 25.8197 17.1443 24.682 15.9913C23.5443 14.8384 22.0869 14.0482 20.4956 13.7215C18.9043 13.3948 17.2511 13.5464 15.7468 14.157C14.2425 14.7675 12.9552 15.8093 12.049 17.1497C11.1428 18.4901 10.6586 20.0682 10.6583 21.683ZM20.0567 23.2334C20.0459 22.688 19.8733 22.1578 19.5606 21.7095C19.2479 21.2612 18.8089 20.9146 18.2987 20.7132C17.7886 20.5118 17.2299 20.4647 16.6929 20.5776C16.1558 20.6905 15.6643 20.9585 15.2799 21.348C14.8956 21.7374 14.6355 22.231 14.5323 22.7668C14.4291 23.3026 14.4874 23.8568 14.6998 24.3598C14.9123 24.8628 15.2695 25.2922 15.7266 25.5943C16.1837 25.8963 16.7204 26.0575 17.2693 26.0576C17.6394 26.0541 18.0052 25.978 18.3456 25.8339C18.6861 25.6897 18.9946 25.4802 19.2535 25.2173C19.5124 24.9545 19.7166 24.6435 19.8545 24.3021C19.9923 23.9608 20.061 23.5958 20.0567 23.228V23.2334Z" fill="#F18A00"/>
<path d="M117.002 14.0506C117.109 13.4938 117.418 12.9955 117.87 12.6507C118.323 12.3058 118.887 12.1384 119.456 12.1804C120.005 12.1585 120.543 12.3364 120.969 12.6808C121.394 13.0252 121.679 13.5123 121.769 14.0506H117.002ZM124.065 15.9045C124.122 15.5803 124.153 15.2522 124.158 14.9233C124.193 13.6306 123.711 12.377 122.816 11.4378C122.39 10.9788 121.869 10.6161 121.289 10.3739C120.71 10.1317 120.085 10.0157 119.456 10.0338C118.8 10.0092 118.146 10.1215 117.537 10.3633C116.927 10.6051 116.375 10.9711 115.916 11.4378C115.464 11.8978 115.11 12.4434 114.875 13.0422C114.64 13.6411 114.528 14.2808 114.547 14.9233C114.523 15.5698 114.631 16.2144 114.867 16.8176C115.102 17.4208 115.459 17.9697 115.916 18.4306C116.407 18.9005 116.989 19.266 117.627 19.5046C118.265 19.7433 118.945 19.85 119.625 19.8183C120.417 19.8614 121.207 19.7016 121.918 19.3542C122.63 19.0068 123.24 18.4834 123.689 17.8343L121.753 16.723C121.505 17.0334 121.186 17.2799 120.823 17.4413C120.459 17.6027 120.061 17.6743 119.664 17.65C118.229 17.65 117.351 17.0754 117.034 15.9099L124.065 15.9045ZM109.431 10.0338C108.893 9.98906 108.354 10.0852 107.866 10.3125C107.378 10.5398 106.958 10.8905 106.649 11.3293V10.2994H104.249V19.5527H106.649V14.5547C106.649 13.0152 107.451 12.2563 108.7 12.2563C108.954 12.2371 109.209 12.2739 109.447 12.364C109.685 12.4542 109.9 12.5954 110.076 12.7777C110.253 12.96 110.387 13.1788 110.469 13.4185C110.55 13.6583 110.578 13.9129 110.549 14.1644V19.5527H112.949V13.8663C112.979 13.3545 112.906 12.8418 112.734 12.3586C112.561 11.8754 112.293 11.4314 111.945 11.0529C111.624 10.714 111.233 10.4477 110.799 10.2719C110.366 10.0961 109.899 10.0149 109.431 10.0338ZM102.045 19.5527V10.2994H99.6396V19.5527H102.045ZM100.834 9.1827C101.226 9.18132 101.601 9.02719 101.88 8.75346C102.158 8.47974 102.318 8.10831 102.323 7.71909C102.336 7.5183 102.306 7.31715 102.237 7.128C102.169 6.93885 102.062 6.7657 101.923 6.61922C101.784 6.47273 101.617 6.35601 101.431 6.27622C101.245 6.19643 101.045 6.15527 100.842 6.15527C100.64 6.15527 100.44 6.19643 100.254 6.27622C100.068 6.35601 99.9006 6.47273 99.7619 6.61922C99.6232 6.7657 99.5161 6.93885 99.4472 7.128C99.3784 7.31715 99.3492 7.5183 99.3614 7.71909C99.3657 8.10595 99.5222 8.47578 99.7975 8.74934C100.073 9.02291 100.445 9.17847 100.834 9.1827ZM95.3795 10.2669H92.9741V19.5527H95.3795V15.1293C95.3437 14.7648 95.4038 14.3973 95.554 14.0628C95.7041 13.7283 95.9391 13.4383 96.2359 13.2212C96.8145 12.8314 97.5189 12.6709 98.2105 12.7713V10.1042C97.6106 10.0679 97.0143 10.22 96.5062 10.5391C95.9981 10.8582 95.604 11.3281 95.3795 11.8823V10.2669ZM84.1376 14.0235C84.2454 13.4692 84.5532 12.9732 85.0033 12.6288C85.4533 12.2844 86.0145 12.1153 86.5812 12.1533C87.1366 12.1282 87.6817 12.3081 88.1117 12.6583C88.5417 13.0086 88.8261 13.5044 88.9104 14.0506L84.1376 14.0235ZM91.2286 15.8774C91.2847 15.5532 91.3157 15.2251 91.3213 14.8962C91.3551 13.6159 90.881 12.3737 90.0013 11.4378C89.575 10.9754 89.0528 10.6105 88.4708 10.3681C87.8889 10.1257 87.2609 10.0117 86.6303 10.0338C85.9736 10.0098 85.319 10.1223 84.7085 10.3641C84.098 10.6058 83.545 10.9715 83.0848 11.4378C82.6328 11.8979 82.2783 12.4434 82.0422 13.0421C81.8061 13.6408 81.6932 14.2805 81.7103 14.9233C81.6857 15.5698 81.7945 16.2144 82.03 16.8176C82.2654 17.4208 82.6225 17.9697 83.0794 18.4306C83.5697 18.9011 84.1517 19.2669 84.7896 19.5055C85.4274 19.7442 86.1077 19.8506 86.7885 19.8183C87.5801 19.8609 88.3694 19.7009 89.081 19.3535C89.7925 19.0061 90.4024 18.483 90.8522 17.8343L88.9104 16.7176C88.664 17.0276 88.3458 17.2738 87.983 17.4352C87.6202 17.5966 87.2235 17.6684 86.8267 17.6446C85.3921 17.6446 84.5139 17.0699 84.1976 15.9045L91.2286 15.8774ZM77.6411 14.7499C77.6104 15.4173 77.322 16.0472 76.8359 16.5088C76.3498 16.9703 75.7034 17.2278 75.0311 17.2278C74.3588 17.2278 73.7124 16.9703 73.2263 16.5088C72.7401 16.0472 72.4517 15.4173 72.421 14.7499C72.4108 14.4164 72.4699 14.0844 72.5948 13.7748C72.7196 13.4651 72.9074 13.1843 73.1465 12.9501C73.3964 12.7104 73.6922 12.523 74.0165 12.3992C74.3407 12.2753 74.6866 12.2175 75.0338 12.2292C75.3817 12.2174 75.7283 12.2778 76.0514 12.4066C76.3744 12.5354 76.6669 12.7298 76.9102 12.9773C77.1534 13.2084 77.344 13.4886 77.4691 13.799C77.5943 14.1094 77.651 14.4429 77.6357 14.777L77.6411 14.7499ZM77.6411 11.4106C77.2989 10.9502 76.8474 10.581 76.3268 10.336C75.8062 10.091 75.2327 9.97789 74.6574 10.0067C74.0401 9.99439 73.4271 10.1116 72.8585 10.3508C72.2898 10.5899 71.7784 10.9455 71.3574 11.3944C70.9204 11.8369 70.5767 12.3616 70.3463 12.9378C70.1159 13.5139 70.0035 14.13 70.0155 14.7499C69.9933 16.0034 70.4696 17.215 71.341 18.1216C71.7657 18.5691 72.2793 18.924 72.8492 19.1638C73.4192 19.4036 74.0331 19.5231 74.652 19.5147C75.2273 19.5435 75.8008 19.4304 76.3214 19.1854C76.842 18.9404 77.2935 18.5712 77.6357 18.1107V19.1082C77.6357 20.5718 76.7029 21.3903 75.192 21.3903C74.7022 21.4335 74.2103 21.3334 73.7771 21.1022C73.3438 20.871 72.9881 20.5189 72.7538 20.0893L70.7028 21.2602C71.521 22.7401 73.1083 23.5207 75.1211 23.5207C76.3615 23.5552 77.5744 23.1541 78.5466 22.3877C79.0248 21.9944 79.404 21.4956 79.654 20.9309C79.904 20.3663 80.0179 19.7514 79.9866 19.1353V10.2994H77.6357L77.6411 11.4106ZM64.91 10.0338C64.3736 9.98893 63.8347 10.085 63.3474 10.3124C62.8601 10.5398 62.4415 10.8905 62.1336 11.3293V10.2994H59.7281V19.5527H62.1336V14.5547C62.1336 13.0152 62.9354 12.2563 64.1846 12.2563C64.4383 12.2369 64.6932 12.2737 64.9309 12.3639C65.1687 12.454 65.3834 12.5954 65.5596 12.7778C65.7359 12.9602 65.8693 13.1792 65.9503 13.4189C66.0314 13.6586 66.058 13.9132 66.0282 14.1644V19.5527H68.4337V13.8663C68.4632 13.3541 68.3892 12.8412 68.2158 12.358C68.0425 11.8748 67.7735 11.431 67.4246 11.0529C67.1033 10.714 66.7125 10.4477 66.2787 10.2719C65.8449 10.0961 65.3781 10.0149 64.91 10.0338ZM50.728 16.8043C50.4867 16.5538 50.2982 16.2579 50.1736 15.9339C50.049 15.61 49.9908 15.2645 50.0025 14.9179C49.9901 14.5744 50.0479 14.2321 50.1726 13.9115C50.2973 13.591 50.4863 13.2989 50.728 13.0531C51.2218 12.5763 51.8831 12.3095 52.5717 12.3095C53.2602 12.3095 53.9216 12.5763 54.4153 13.0531C54.6649 13.2954 54.8604 13.587 54.9891 13.9092C55.1179 14.2314 55.177 14.5769 55.1626 14.9233C55.1734 15.2718 55.1116 15.6188 54.9811 15.9425C54.8507 16.2662 54.6543 16.5596 54.4044 16.8043C53.9061 17.2681 53.2489 17.5262 52.5662 17.5262C51.8835 17.5262 51.2263 17.2681 50.728 16.8043ZM55.1626 11.3835C54.7998 10.9356 54.3353 10.5797 53.8071 10.345C53.2789 10.1104 52.7022 10.0037 52.1244 10.0338C51.5185 10.0311 50.919 10.1568 50.3659 10.4027C49.8129 10.6485 49.3189 11.0088 48.9171 11.4594C48.0405 12.3995 47.567 13.642 47.597 14.9233C47.5572 16.2172 48.0269 17.4755 48.9062 18.4306C49.3079 18.8802 49.8022 19.2387 50.3556 19.4819C50.909 19.725 51.5085 19.8472 52.1135 19.84C52.6912 19.8701 53.268 19.7634 53.7962 19.5287C54.3244 19.2941 54.7889 18.9381 55.1517 18.4902V19.5744H57.5572V10.2994H55.1517L55.1626 11.3835ZM38.8369 6.58614V9.03092H42.3442V19.5527H44.9134V9.03092H48.4371V6.58614H38.8369Z" fill="#1E1147"/>
<path opacity="0.24" d="M127.005 27.1094H38.4604V27.5539H127.005V27.1094Z" fill="#1E1147"/>
<path d="M49.9152 34.9825H52.5459V35.6904H49.1624V30.0593H52.5054V30.7672H49.9152V32.4968H52.3031V33.1967H49.9152V34.9825Z" fill="#1E1147"/>
<path d="M48.2507 30.7672H45.7413V32.5933H48.1454V33.3012H45.7413V35.6904H44.9885V30.0593H48.2507V30.7672Z" fill="#1E1147"/>
<path d="M43.02 30.0593H43.7728V35.6904H43.02V30.0593Z" fill="#1E1147"/>
<path d="M39.8204 34.9825H42.265V35.6904H39.0676V30.0593H39.8204V34.9825Z" fill="#1E1147"/>
</g>
<defs>
<clipPath id="clip0_8265_20310">
<rect width="127" height="40" fill="white"/>
</clipPath>
</defs>
</svg>
